<svg xmlns="http://www.w3.org/2000/svg" xmlns:xlink="http://www.w3.org/1999/xlink" width="78.913" height="13.851" viewBox="0 0 78.913 13.851">
  <defs>
    <clipPath id="clip-path">
      <rect width="78.913" height="13.851" fill="none"/>
    </clipPath>
  </defs>
  <g id="Repeat_Grid_25" data-name="Repeat Grid 25" transform="translate(0 0)" clip-path="url(#clip-path)">
    <g transform="translate(0 -10.99)">
      <path id="Path_143" data-name="Path 143" d="M14,16.164q0-.311-.471-.387l-4.223-.614L7.412,11.335Q7.253,10.99,7,10.99t-.412.345L4.695,15.163l-4.224.614Q0,15.853,0,16.164a.641.641,0,0,0,.21.4l3.063,2.978-.724,4.207a1.366,1.366,0,0,0-.017.168.5.5,0,0,0,.088.3.305.305,0,0,0,.265.122.714.714,0,0,0,.337-.1L7,22.256l3.778,1.986a.681.681,0,0,0,.336.1.3.3,0,0,0,.257-.122.5.5,0,0,0,.088-.3,1.271,1.271,0,0,0-.008-.168l-.724-4.207,3.054-2.978A.608.608,0,0,0,14,16.164Z" fill="#fcc75c"/>
    </g>
    <g transform="translate(16 -10.99)">
      <path id="Path_143-2" data-name="Path 143" d="M14,16.164q0-.311-.471-.387l-4.223-.614L7.412,11.335Q7.253,10.99,7,10.99t-.412.345L4.695,15.163l-4.224.614Q0,15.853,0,16.164a.641.641,0,0,0,.21.4l3.063,2.978-.724,4.207a1.366,1.366,0,0,0-.017.168.5.5,0,0,0,.088.3.305.305,0,0,0,.265.122.714.714,0,0,0,.337-.1L7,22.256l3.778,1.986a.681.681,0,0,0,.336.1.3.3,0,0,0,.257-.122.5.5,0,0,0,.088-.3,1.271,1.271,0,0,0-.008-.168l-.724-4.207,3.054-2.978A.608.608,0,0,0,14,16.164Z" fill="#fcc75c"/>
    </g>
    <g transform="translate(32 -10.99)">
      <path id="Path_143-3" data-name="Path 143" d="M14,16.164q0-.311-.471-.387l-4.223-.614L7.412,11.335Q7.253,10.99,7,10.99t-.412.345L4.695,15.163l-4.224.614Q0,15.853,0,16.164a.641.641,0,0,0,.21.4l3.063,2.978-.724,4.207a1.366,1.366,0,0,0-.017.168.5.5,0,0,0,.088.3.305.305,0,0,0,.265.122.714.714,0,0,0,.337-.1L7,22.256l3.778,1.986a.681.681,0,0,0,.336.1.3.3,0,0,0,.257-.122.5.5,0,0,0,.088-.3,1.271,1.271,0,0,0-.008-.168l-.724-4.207,3.054-2.978A.608.608,0,0,0,14,16.164Z" fill="#fcc75c"/>
    </g>
    <g transform="translate(48 -10.99)">
      <path id="Path_143-4" data-name="Path 143" d="M14,16.164q0-.311-.471-.387l-4.223-.614L7.412,11.335Q7.253,10.99,7,10.99t-.412.345L4.695,15.163l-4.224.614Q0,15.853,0,16.164a.641.641,0,0,0,.21.4l3.063,2.978-.724,4.207a1.366,1.366,0,0,0-.017.168.5.5,0,0,0,.088.3.305.305,0,0,0,.265.122.714.714,0,0,0,.337-.1L7,22.256l3.778,1.986a.681.681,0,0,0,.336.1.3.3,0,0,0,.257-.122.5.5,0,0,0,.088-.3,1.271,1.271,0,0,0-.008-.168l-.724-4.207,3.054-2.978A.608.608,0,0,0,14,16.164Z" fill="#fcc75c"/>
    </g>
    <g transform="translate(64 -10.99)">
      <path id="Path_143-5" data-name="Path 143" d="M14,16.164q0-.311-.471-.387l-4.223-.614L7.412,11.335Q7.253,10.99,7,10.99t-.412.345L4.695,15.163l-4.224.614Q0,15.853,0,16.164a.641.641,0,0,0,.21.4l3.063,2.978-.724,4.207a1.366,1.366,0,0,0-.017.168.5.5,0,0,0,.088.3.305.305,0,0,0,.265.122.714.714,0,0,0,.337-.1L7,22.256l3.778,1.986a.681.681,0,0,0,.336.1.3.3,0,0,0,.257-.122.5.5,0,0,0,.088-.3,1.271,1.271,0,0,0-.008-.168l-.724-4.207,3.054-2.978A.608.608,0,0,0,14,16.164Z" fill="#fcc75c"/>
    </g>
  </g>
</svg>
